Coordinates
version=1
nRows=17
nColumns=33
inDegrees=yes

Units are S.I. units (second, meters, Newtons, ...)
Angles are in degrees.

endheader
time	ground_thorax_rot_x	ground_thorax_rot_y	ground_thorax_rot_z	ground_thorax_tx	ground_thorax_ty	ground_thorax_tz	clav_prot_r	clav_elev_r	scapula_abduction_r	scapula_elevation_r	scapula_upward_rot_r	scapula_winging_r	shoulder_elv_r	plane_of_elev_r	axial_rot_r	elbow_flexion_r	pro_sup_r	wrist_flex_r	wrist_dev_r	clav_prot_l	clav_elev_l	scapula_abduction_l	scapula_elevation_l	scapula_upward_rot_l	scapula_winging_l	shoulder_elv_l	plane_of_elev_l	axial_rot_l	elbow_flexion_l	pro_sup_l	wrist_flex_l	wrist_dev_l
      8.13000000	     40.11437997	      1.32029128	      5.22735532	   -162.94425064	    888.35633205	     -8.74909925	     -1.97226401	     41.54937867	     45.00000000	     45.00000000	     29.51310596	   2404.13549537	  -2092.78901479	     18.55261639	   -179.99999979	      6.85457182	    312.82315354	     22.68910701	      7.99888612	     13.30488240	    -45.00000000	    -42.06846768	     45.00000000	    -37.36667323	   -982.78112879	  -2252.74640544	    142.22736099	    144.93473385	   -346.17322122	     51.65917646	      4.61538329	    -22.00595793
      8.14000000	     40.13673406	      1.81276947	      5.64340350	   -160.57645272	    890.43715765	     -8.77516969	     -0.71678141	     41.80329530	     45.00000000	     45.00000000	     27.04414504	   2404.37685137	  -2093.71535606	     19.36818096	   -179.99999979	      6.62235198	    312.68808194	     23.05285616	      7.65404975	     13.00592401	    -45.00000000	    -42.34194141	     45.00000000	    -37.85219137	   -982.67277148	  -2252.41085785	    141.96502496	    144.74844238	   -346.10649053	     51.59573000	      4.46698773	    -21.86172309
      8.15000000	     40.01792234	      0.86861753	      4.23605743	   -158.13064090	    892.38360461	     -8.79479560	     -2.51987346	     41.09113800	     45.00000000	     45.00000000	     32.65294282	   2404.08447374	  -2092.16370761	     18.60975567	   -179.99999979	      6.79838454	    312.27247919	     22.77604384	      8.30624654	     13.22307708	    -45.00000000	    -43.12862227	     45.00000000	    -34.60802408	   -982.53975515	  -2252.30056127	    142.09642639	    145.50981099	   -346.15071467	     51.40625785	      4.57321302	    -22.03860373
      8.16000000	     39.95955004	      0.61841488	      3.68134392	   -155.61263703	    894.17663293	     -8.80613851	     -3.02357463	     40.81223084	     45.00000000	     45.00000000	     34.29427882	   2403.85817818	  -2091.92611659	     18.81134955	   -179.99999979	      6.78780512	    312.40962146	     22.88821031	      8.33729802	     13.31864391	    -45.00000000	    -43.79636410	     45.00000000	    -32.92428100	   -982.45524257	  -2252.13715453	    142.16897488	    145.74022424	   -346.13445553	     51.05309711	      4.62574518	    -22.11988680
      8.17000000	     40.03008418	      0.95608486	      3.85727868	   -153.02721857	    895.80401359	     -8.80927086	     -1.35441171	     41.01182885	     45.00000000	     45.00000000	     33.04018389	   2404.02254192	  -2092.49160119	     19.47472187	   -179.99999979	      6.80595636	    311.89186251	     23.08573690	      8.25510257	     13.32180824	    -45.00000000	    -44.43246111	     45.00000000	    -33.23781718	   -982.11108788	  -2252.00886011	    141.72506084	    145.69087384	   -346.09718890	     50.63670359	      4.45969344	    -21.91057510
      8.18000000	     39.86082144	      0.19618949	      2.69288698	   -150.37061797	    897.26057561	     -8.80609822	     -3.70223268	     40.36544733	     45.00000000	     45.00000000	     37.40228325	   2403.65234281	  -2091.40616797	     19.00448636	   -179.99999979	      6.72361685	    311.46792948	     23.00833940	      8.60862295	     13.14471259	    -45.00000000	    -44.86901537	     45.00000000	    -29.99724269	   -982.26672012	  -2251.76244819	    142.06870279	    146.29620604	   -346.19372729	     49.94600464	      4.76740742	    -22.24697596
      8.19000000	     39.84542961	     -0.05551620	      2.31683905	   -147.65073047	    898.53855633	     -8.79813651	     -3.02106324	     40.06463277	     45.00000000	     45.00000000	     38.51381196	   2403.82859990	  -2091.37213355	     18.94554931	   -179.99999979	      6.63465375	    310.90847706	     22.79774801	      8.89799290	     13.55566631	    -45.00000000	    -45.00000000	     45.00000000	    -29.05590239	   -982.18059540	  -2251.55267964	    141.70588896	    146.66488072	   -346.32950570	     49.12249297	      4.76624212	    -22.17290600
      8.20000000	     39.82904280	     -0.17313946	      2.00901041	   -144.86616917	    899.63374609	     -8.78666499	     -4.28095509	     39.91801698	     45.00000000	     45.00000000	     39.85941671	   2403.64346615	  -2091.17315869	     19.21890055	   -179.99999979	      6.67530189	    310.35598603	     23.08759093	      8.85877185	     12.63224684	    -45.00000000	    -45.00000000	     45.00000000	    -27.65899324	   -982.65002298	  -2251.28976794	    142.05125218	    146.77524574	   -346.36893363	     47.94661156	      5.08024740	    -22.40950683
      8.21000000	     39.79698337	     -0.39710488	      1.68810030	   -142.01927106	    900.54301741	     -8.77075525	     -4.43732722	     39.65369518	     45.00000000	     45.00000000	     41.28326055	   2403.65938217	  -2090.99972278	     19.28581241	   -179.99999979	      6.69631091	    309.63650777	     23.04759474	      9.06350880	     12.32192352	    -45.00000000	    -45.00000000	     45.00000000	    -26.58323938	   -982.83584666	  -2251.10807056	    141.98798764	    147.12453742	   -346.52428130	     46.47761739	      5.28327294	    -22.47034235
      8.22000000	     39.74775992	     -0.57491796	      1.39866559	   -139.11646716	    901.25889632	     -8.74730491	     -4.54815052	     39.44293622	     45.00000000	     45.00000000	     42.52297694	   2403.68910473	  -2090.88257471	     19.28315495	   -179.99999979	      6.63025826	    308.69179631	     23.00752649	      9.25210402	     12.08534544	    -45.00000000	    -45.00000000	     45.00000000	    -25.63321984	   -983.09855010	  -2250.88359002	    141.93462906	    147.53623680	   -346.68259768	     44.71006004	      5.54479586	    -22.55518621
      8.23000000	     39.69910825	     -0.76662275	      1.14741669	   -136.14989128	    901.77647732	     -8.71101335	     -4.57880326	     39.25721720	     45.00000000	     45.00000000	     43.87596196	   2403.64741134	  -2090.75227228	     19.34724993	   -179.99999979	      6.64453329	    307.53424294	     22.98856703	      9.46191216	     11.92177732	    -45.00000000	    -45.00000000	     45.00000000	    -24.65203944	   -983.31565717	  -2250.71188524	    141.87857364	    147.96349146	   -346.87157647	     42.59430322	      5.84544362	    -22.62737605
      8.24000000	     39.62107450	     -0.89988133	      0.88826963	   -133.12211699	    902.08508419	     -8.65569236	     -4.80219105	     39.07554636	     45.00000000	     45.00000000	     44.91718836	   2403.58769768	  -2090.73427054	     19.38474429	   -179.99999979	      6.63377706	    306.29828386	     22.96255344	      9.65131449	     11.61851321	    -45.00000000	    -45.00000000	     45.00000000	    -23.68293407	   -983.59981199	  -2250.56834516	    141.80866142	    148.35398265	   -347.15986166	     40.07940536	      6.26909536	    -22.70984990
      8.25000000	     39.64174534	     -0.78504202	      1.07532893	   -130.03152660	    902.17365605	     -8.57577033	     -3.57442484	     39.63906723	     45.00000000	     45.00000000	     45.00000000	   2403.97484702	  -2090.78812923	     19.32662471	   -179.99999979	      6.58386479	    304.81243257	     23.29593314	      9.52792607	     12.08467501	    -45.00000000	    -45.00000000	     45.00000000	    -23.61108868	   -983.21099625	  -2250.60040907	    141.02281172	    148.50044291	   -347.48355124	     37.65700459	      6.44262157	    -22.58880703
      8.26000000	     39.70053159	     -0.85396366	      0.93137346	   -126.88332082	    902.03046155	     -8.46848844	     -3.86736949	     39.29300743	     45.00000000	     45.00000000	     45.00000000	   2404.19938328	  -2091.09062982	     19.36009853	   -179.99999979	      6.30203324	    303.39371596	     23.07895117	      9.75705019	     11.66098947	    -45.00000000	    -45.00000000	     45.00000000	    -22.95907708	   -984.02524119	  -2250.55465903	    141.43024066	    149.00734188	   -347.68143051	     35.01196916	      6.99823780	    -22.75444962
      8.27000000	     39.56799399	     -0.80464827	      0.94180072	   -123.65213247	    901.64314176	     -8.33334778	     -5.05717147	     39.09903766	     45.00000000	     45.00000000	     45.00000000	   2404.01883600	  -2091.54126806	     19.60237303	   -179.99999979	      6.42610570	    301.77199363	     23.03071095	     10.00353803	     10.88569729	    -45.00000000	    -45.00000000	     45.00000000	    -21.61374127	   -984.28796334	  -2250.58715548	    141.57927698	    149.55142752	   -348.03161169	     31.86335334	      7.72155886	    -22.82751316
      8.28000000	     39.55872912	     -0.84963345	      0.90714592	   -120.35496902	    901.00247282	     -8.17484467	     -5.36864165	     39.08606476	     45.00000000	     45.00000000	     45.00000000	   2404.00230608	  -2091.94021480	     19.72294895	   -179.99999979	      6.23034493	    299.81858838	     23.04100761	     10.10453305	     10.59146128	    -45.00000000	    -45.00000000	     45.00000000	    -20.62490860	   -984.46008969	  -2250.76445932	    141.49667678	    149.82574375	   -348.38416998	     28.31340762	      8.47623239	    -22.86464188
      8.29000000	     39.55090017	     -0.81078129	      0.95272416	   -116.97031555	    900.09754250	     -7.99903715	     -5.39249643	     39.11243760	     45.00000000	     45.00000000	     45.00000000	   2404.11962753	  -2092.25743563	     19.73128578	   -179.99999979	      6.17989875	    297.70294694	     22.96651851	     10.31970544	     10.42515286	    -45.00000000	    -45.00000000	     45.00000000	    -19.99932833	   -984.77318812	  -2250.91676874	    141.47874877	    150.12296154	   -348.74356180	     24.87746475	      9.12691113	    -22.79277153
